<?xml version="1.0" encoding="utf-8"?>
<svg viewBox="800 0 400 400" version="1.1" xmlns:xlink="http://www.w3.org/1999/xlink" xmlns="http://www.w3.org/2000/svg">
  <title>Map of Japan</title>
  <desc>Author: Lincun (modifications by Erida539)</desc>
  <g
     id="ground" fill="gray"
     transform="translate(236.42711,44.081472)">
    <g stroke="#000000" stroke-width="0.5" stroke-linejoin="round" id="g1">
      <g
         id="HOKKAIDO">
        <path
           id="hokkaido"
           fill="#ffffff"
           d="m 591,250 -1,6 h -3 v -9 l 6,-2 z m 29,21 -1,-11 -4,-7 -5,-1 -2,-5 -4,-1 -2,-5 4,-8 -1,-11 2,-3 8,-2 6,-9 3,4 2,-1 4,-9 6,-5 -9,-13 v -7 l 7,-3 14,11 10,-3 v 3 l 7,2 6,-2 5,-10 -5,-24 2,-5 8,-4 4,-5 -1,-23 4,-8 1,-11 -3,-17 -8,-19 3,-10 -1,-6 2,3 h 5 l 6,-8 26,28 8,13 16,17 29,18 28,6 1,4 6,5 h 19 l 22,-27 2,5 -11,24 v 9 l 4,6 9,3 -2,2 2,-3 h -6 l 4,13 6,6 5,1 6,-8 8,-1 -11,8 -1,7 -17,3 -2,6 -5,5 h -5 l -2,-2 1,-2 -2,-1 -4,6 3,2 -15,1 -8,-3 -15,8 -14,16 -8,14 -3,8 v 16 l -2,8 -14,-12 -23,-8 -28,-18 -13,-2 4,-2 -16,8 -15,15 -4,-2 4,-1 -5,-1 -2,-6 -8,-7 h -10 l -6,8 -3,9 1,5 12,8 10,-1 10,12 8,4 2,3 -6,5 -4,1 -9,-4 -3,3 v -5 h -3 l -2,5 -7,4 v 9 l -8,3 -3,6 -8,-3 -2,-7 1,-9 z m 39,-213 2,-2 4,1 2,5 -4,4 -4,-4 z m -6,-13 v -1 l 2,2 -1,9 -4,-10 z m 304,-16 -2,-5 h -2 l -2,4 2,7 -1,3 -5,1 -2,8 -7,-2 1,7 -10,10 -1,4 -5,-1 v 3 l 4,1 v 4 l -4,4 -4,-1 1,5 -3,-4 1,5 -3,7 4,1 4,-9 6,-1 4,-9 10,-9 3,-10 5,2 6,-1 15,-18 13,-9 9,-1 1,-4 -2,-3 2,-4 -5,-2 -6,2 -12,17 -11,3 z m -79,81 5,-6 8,-2 5,-6 3,1 3,-7 -11,3 -7,-5 -4,2 -3,11 -10,14 v 3 l -13,15 2,7 5,-1 v 5 l 1,-14 8,-4 1,-6 h 3 v -7 z m 32,26 11,-9 -4,-3 -4,3 1,2 -7,1 v 4 l 2,-1 z m -22,18 3,-5 -6,1 z m -10,3 2,-2 h -4 z" />
      </g>
      <g
         id="TOHOKU">
        <path
           id="aomori"
           fill=""
           d="m 613,358 v -7 l -4,-4 7,-8 h 5 l 7,-4 2,-16 -3,-5 3,-1 1,-7 6,5 4,-3 4,2 2,15 3,7 6,-3 -1,-4 2,-4 11,8 3,-2 4,-16 -4,-7 -6,6 -14,3 6,-26 17,12 9,-5 -3,31 3,14 4,11 4,-1 5,5 -6,7 -5,-1 -4,2 -2,-2 -14,10 -3,-2 1,-11 -5,1 v -6 l -11,7 -3,-2 -2,2 -7,-5 -3,3 -13,-1 -2,3 z" />
        <path
           id="iwate"
           
           d="m 698,447 -7,-1 -2,13 -7,-2 -3,5 -7,-5 2,-3 h -7 l -11,-5 2,-6 -3,-5 2,-3 -8,-13 4,-11 4,-5 -2,-5 3,-4 -3,-5 h 4 l -1,-19 4,-5 3,2 14,-10 2,2 4,-2 5,1 6,-7 7,12 -1,4 4,3 -2,5 7,5 2,14 -2,11 4,-5 v 5 l 2,2 -5,5 1,2 4,-3 -1,4 h -3 l -1,4 -2,1 4,-1 -5,3 2,3 -2,1 h 4 l -6,7 4,2 h -5 l 3,3 h -3 l 2,2 -6,1 v -3 l 1,4 h -2 v 4 l -1,-4 z" />
        <path
           id="miyagi"
           
           d="m 666,515 -4,1 1,5 h -5 l 1,2 -5,-1 -1,-6 h -9 l -4,-5 h -6 l -1,-5 7,-1 3,-7 v -5 l 7,-12 -5,-11 3,-1 2,-8 -5,-7 h 5 l 6,-5 11,5 h 7 l -2,3 7,5 3,-5 7,2 2,-13 7,1 2,7 -5,-3 2,5 -4,4 2,5 -2,-2 -4,3 5,2 -4,6 h 4 v 3 l -3,-2 2,5 h -3 l 1,3 h 4 l -3,1 3,3 -1,4 -4,-3 1,-2 h -2 l 2,-1 -2,-2 -17,2 -2,4 3,1 -4,2 h 2 l -5,10 z m 10,-28 1,1 h -2 z" />
        <path
           id="akita"
           
           d="m 656,449 -6,5 h -5 l -4,-2 -2,-4 -13,-4 -5,-5 -9,1 2,-9 5,-9 1,-23 -7,-7 -8,2 -3,-8 6,2 6,-8 4,-8 v -8 l -5,-6 4,1 2,-3 13,1 3,-3 7,5 2,-2 3,2 11,-7 v 6 l 5,-1 -1,11 -4,5 1,19 h -4 l 3,5 -3,4 2,5 -4,5 -4,11 8,13 -2,3 3,5 z" />
        <path
           id="yamagata"
           
           d="m 612,440 9,-1 5,5 13,4 2,4 4,2 5,7 -2,8 -3,1 5,11 -7,12 v 5 l -3,7 -7,1 1,5 -1,9 2,2 -3,4 -6,1 -3,-3 -3,1 -3,-4 -6,2 -7,-3 -2,-4 3,-9 -1,-7 9,-4 2,-4 -10,-6 1,-7 -9,-3 13,-22 z" />
        <path
           id="fukushima"
           
           d="m 661,580 -10,-5 v 5 l -6,5 -10,-8 -1,-6 -6,-5 -12,-3 -25,16 -8,-2 1,-14 -5,-4 4,-7 -2,-4 1,-3 h 9 l 1,-4 h 8 l -2,-8 9,-11 -3,-2 7,3 6,-2 3,4 3,-1 3,3 6,-1 3,-4 -2,-2 1,-9 h 6 l 4,5 h 9 l 1,6 5,1 -1,-2 h 5 l -1,-5 4,-1 6,15 v 26 l -2,17 z" />
      </g>
      <g
         id="KANTO">
        <path
           id="yamanashi"
           
           d="m 533,659 -2,-5 3,-2 -3,-3 9,-11 6,5 6,-2 4,4 3,-3 10,3 5,9 5,3 -1,8 -10,9 -12,3 -5,-6 -3,8 1,7 -5,2 -4,-9 -6,-1 1,-11 z" />
        <path
           id="ibaraki"
           
           d="m 611,630 v 0 h -2 l -2,-7 6,-3 2,-4 3,1 3,-5 11,-2 3,-7 -2,-11 3,-2 -2,-3 1,-10 10,8 6,-5 v -5 l 10,5 -8,24 1,7 -3,6 2,11 5,8 -2,3 2,3 1,-5 7,13 -17,-13 -1,3 -17,5 -11,-6 z" />
        <path
           id="tochigi"
           
           d="m 607,623 h -1 l -2,-4 h -9 l -5,-7 6,-13 -8,-2 1,-9 3,-4 -3,-1 2,-4 25,-16 12,3 6,5 1,6 -1,10 2,3 -3,2 2,11 -3,7 -11,2 -3,5 -3,-1 -2,4 z" />
        <path
           id="gunma"
           
           d="m 606,623 -11,1 -5,-4 -11,-2 -5,10 -16,9 -4,-2 v -6 l -3,-3 h 3 l -2,-7 3,-2 -1,-6 h -9 l -3,-5 1,-7 5,-4 -1,-2 9,-3 12,-6 v -3 l 3,-1 -1,-5 4,-1 2,-4 7,7 8,2 -2,4 3,1 -3,4 -1,9 8,2 -6,13 5,7 h 9 z" />
        <path
           id="saitama"
           
           d="m 606,623 h 1 l 2,7 h 2 v 0 l 7,13 v 6 l -7,-2 -1,2 -4,-1 -6,3 v -3 l -8,3 -4,-5 -15,-3 -4,2 -10,-3 -1,-5 16,-9 5,-10 11,2 5,4 z" />
        <path
           id="chiba"
           
           d="m 617,658 2,-4 -1,-5 v -6 l -7,-13 9,9 11,6 17,-5 1,-3 17,13 1,3 -10,1 -11,10 -3,22 -13,4 -11,14 -7,-4 5,-2 -3,-2 2,-3 -1,-6 2,-4 -4,-5 3,-4 3,1 v -4 l 6,-2 5,-7 -7,-7 -5,4 z" />
        <path
           id="tokyo"
           
           d="m 756,1183 2,4 h -2 z M 618,815 v 5 l -5,-6 z m -15,-59 -2,2 -3,-2 3,-3 z m -22,-10 2,2 -3,1 z m 7,-6 -2,-2 2,-4 z m 4,-23 v -6 l 4,2 v 5 z m 26,-68 1,5 -2,4 -6,-1 2,5 h -4 4 v 3 l -14,-7 -4,2 3,2 h -1 l -1,5 -3,-5 -14,-5 -5,-3 -5,-9 4,-2 15,3 4,5 8,-3 v 3 l 6,-3 4,1 1,-2 z" />
        <path
           id="kanagawa"
           
           d="m 579,657 14,5 3,5 1,-5 h 1 l -3,-2 4,-2 14,7 -4,4 h -4 l 3,4 -3,-1 v 8 l 6,2 -5,5 2,2 h -4 l 1,-4 -3,-5 -7,-2 -12,3 -3,3 1,6 h -2 l -7,-4 1,-12 h -5 l 10,-9 z" />
        <path
           id="nagano"
           
           d="m 556,590 -9,3 1,2 -5,4 -1,7 3,5 h 9 l 1,6 -3,2 2,7 h -3 l 3,3 v 6 l 4,2 1,5 -3,3 -4,-4 -6,2 -6,-5 -9,11 3,3 -3,2 2,5 -4,5 v 12 l -16,10 -8,-2 -5,3 -1,-6 2,-3 -1,-4 h 3 l -2,-3 2,-4 -6,-6 2,-3 -5,-7 -7,-3 3,-5 h 5 l 6,-7 1,-4 -3,-4 5,-10 -3,-6 6,-8 -1,-3 3,-1 1,-11 5,-7 v -3 l 7,1 v 5 l 2,2 8,-5 4,2 v -4 l 5,-6 7,-2 3,3 v 4 l 5,4 z" />
      </g>
      <g
         id="HOKURIKU">
        <path
           id="nigata"
           
           d="m 510,589 -3,-11 -4,-3 14,-5 9,-7 h 7 l 15,-12 10,-15 5,-13 19,-13 1,3 -1,-2 7,-6 8,-29 9,3 -1,7 10,6 -2,4 -9,4 1,7 -3,9 2,4 3,2 -9,11 2,8 h -8 l -1,4 h -9 l -1,3 2,4 -4,7 5,4 -1,14 -7,-7 -2,4 -4,1 1,5 -3,1 v 3 l -12,6 v -7 l -5,-4 v -4 l -3,-3 -7,2 -5,6 v 4 l -4,-2 -8,5 -2,-2 v -5 l -7,-1 v 3 z m 29,-67 -8,1 7,-9 -2,-3 -3,2 v -5 l 4,-9 10,-8 -4,15 7,1 -4,9 z" />
        <path
           id="toyama"
           
           d="m 501,612 -10,-4 -4,2 v -2 l -5,2 -3,-2 -9,11 -1,-4 -4,-2 -4,5 -1,-9 2,-7 -2,-4 3,-4 -2,-3 3,-2 2,-10 8,-3 -3,7 12,7 8,-4 2,-8 10,-3 4,3 3,11 -1,11 -3,1 1,3 z" />
        <path
           id="ishikawa"
           
           d="m 470,567 -3,-3 h 7 z m -9,51 3,3 -5,10 -5,1 -5,-5 -10,-1 -6,-9 14,-14 12,-18 1,-11 -2,-4 v -5 l -3,-1 5,-13 25,-10 4,1 1,4 -6,1 -1,9 -4,-1 -7,7 -2,-3 -3,1 -2,9 6,2 3,-4 v 9 l -8,3 -2,10 -3,2 2,3 -3,4 2,4 -2,7 z" />
        <path
           id="fukui"
           
           d="m 433,617 6,9 10,1 5,5 5,-1 -2,6 5,8 -2,4 h -13 l -1,3 -7,-3 -5,8 -6,-2 1,8 -3,-1 -1,3 -5,3 -3,-2 -3,7 -4,-1 -2,4 -12,-2 -4,-6 2,-5 2,4 7,-3 -4,3 6,1 3,-3 h -2 l -1,-3 6,3 -1,-3 3,-1 -2,-3 8,1 -1,-6 3,-3 v 6 l 3,1 1,-7 -7,-13 9,-13 v -4 z" />
      </g>
      <g
         id="CHUBU">
        <path
           id="gifu"
           
           d="m 501,612 3,6 -5,10 3,4 -1,4 -6,7 h -5 l -3,5 7,3 5,7 -2,3 6,6 -2,4 2,3 h -3 l 1,4 -2,3 -6,4 -7,-4 -6,2 -5,-2 -6,-8 -10,3 -5,8 v 6 l -7,-7 -6,2 -2,-2 3,-9 v -3 l -3,-7 h -3 l -2,-7 5,-8 7,3 1,-3 h 13 l 2,-4 -5,-8 2,-6 5,-10 -3,-3 4,-5 4,2 1,4 9,-11 3,2 5,-2 v 2 l 4,-2 z" />
        <path
           id="shizuoka"
           
           d="m 568,674 h 5 l -1,12 7,4 -3,5 5,6 -1,4 -7,10 v 5 l -8,4 -5,-6 2,-14 -1,-3 1,-4 6,-1 -11,-6 -7,3 -3,4 1,3 -8,4 -3,9 -5,7 1,4 -13,-4 -25,-1 v -8 l 8,-5 10,-20 16,-10 v -12 l 4,-5 2,8 -1,11 6,1 4,9 5,-2 -1,-7 3,-8 5,6 z" />
        <path
           id="aichi"
           
           d="m 495,719 -24,6 3,-5 2,2 9,-6 1,3 3,-3 -1,-3 -6,-3 -2,4 -8,-1 -4,-3 2,-8 -4,11 3,4 h -2 l -5,-3 2,-5 -3,-3 v -5 l 4,-7 -6,3 -5,-7 v -6 l 5,-8 10,-3 6,8 5,2 6,-2 7,4 6,-4 1,6 5,-3 8,2 -10,20 -8,5 z" />
        <path
           id="mie"
           
           d="m 418,778 -5,-3 -2,-7 1,1 v -3 h 1 l 6,-3 -1,-3 6,-1 v -3 l -1,-7 2,-4 -2,-3 2,-1 -3,-5 9,-6 -10,-6 2,-3 -2,-2 h 2 l -1,-4 -2,-4 4,-1 1,-6 7,3 6,-3 4,-10 -1,-9 6,-2 7,7 5,7 -6,2 v 4 l -7,12 v 8 l 16,7 2,5 2,-2 v 5 h -5 5 l -1,6 h -3 l 1,-1 -3,-2 v 2 h -6 l 2,-3 h -3 l -3,5 -1,-2 -2,2 -2,-1 v 3 l -2,-2 -8,3 -2,3 1,4 h -3 l 1,-2 -3,3 4,3 -2,1 1,3 -3,-2 1,3 -7,4 z" />
      </g>
      <g
         id="KINKI">
        <path
           id="shiga"
           
           d="m 434,657 2,7 h 3 l 3,7 v 3 l -3,9 2,2 1,9 -4,10 -6,3 -7,-3 -1,6 -4,1 -4,-6 h -4 l -2,-10 2,-15 -4,-4 2,-4 4,1 3,-7 3,2 5,-3 1,-3 3,1 -1,-8 z" />
        <path
           id="kyoto"
           
           d="m 405,712 -2,-8 -4,-2 v -2 l -3,3 -9,-8 1,-6 -9,-2 -2,-6 -5,1 -7,-5 v -6 l 6,1 v -7 -2 l -6,2 -3,-5 1,-4 2,3 -1,-3 17,-7 4,7 -8,6 2,2 3,-4 -1,4 5,1 -1,4 2,-2 2,1 -3,-5 7,-3 1,3 -2,5 4,6 12,2 4,4 -2,15 2,10 h 4 l 4,6 2,4 -2,1 -5,-3 -4,3 z" />
        <path
           id="osaka"
           
           d="m 387,695 9,8 3,-3 v 2 l 4,2 2,8 -4,10 2,10 -2,4 -26,6 -3,-2 6,-2 7,-6 3,-10 3,3 -3,-9 3,-2 -2,-11 3,-1 -6,-2 -1,-5 z" />
        <path
           id="hyogo"
           
           d="m 360,744 -7,3 -1,-4 -3,1 v -4 l 19,-19 1,3 -7,9 2,9 z m -27,-31 1,-3 -4,-5 2,-3 -2,-7 8,-9 v -5 l 6,-2 v -5 l -7,-17 9,-3 17,2 -1,4 3,5 6,-2 v 2 7 l -6,-1 v 6 l 7,5 5,-1 2,6 9,2 -1,6 h -2 l 1,5 6,2 -3,1 2,11 -3,2 -5,-1 -13,5 -15,-9 h -14 l -1,-3 -2,5 -3,-2 z" />
        <path
           id="nara"
           
           d="m 418,760 -4,2 -1,4 h -1 v 3 l -1,-1 -14,-2 2,-5 -4,-7 5,-7 4,-1 -3,-10 2,-4 -2,-10 4,-10 6,4 4,-3 5,3 2,-1 1,4 h -2 l 2,2 -2,3 10,6 -9,6 3,5 -2,1 2,3 -2,4 1,7 v 3 z" />
        <path
           id="wakayama"
           
           d="m 411,768 2,7 5,3 -4,5 2,4 -9,5 -1,3 h -1 v -2 l -16,-5 -6,-8 4,-3 -9,-4 -5,-6 h -4 l 3,-5 -2,-1 5,-3 -4,-3 3,-2 -1,-2 5,-1 -8,-7 2,-3 3,2 26,-6 3,10 -4,1 -5,7 4,7 -2,5 z m 7,-8 1,3 -6,3 1,-4 z" />
      </g>
      <g
         id="CHUGOKU">
        <path
           id="tottori"
           
           d="m 280,690 -7,-2 3,-5 -2,-4 8,-2 1,-9 -6,-8 3,-1 2,4 6,2 8,-4 11,2 21,-1 9,-5 7,17 v 5 l -6,2 -12,4 -1,-7 -7,-2 1,-3 -10,6 -4,-4 -8,-2 -2,6 -3,1 1,3 -6,-1 v 4 l -6,1 z" />
        <path
           id="shimane"
           
           d="m 269,624 5,-2 -3,5 -3,-2 1,3 -3,-3 z m 6,2 -3,2 v -4 l 3,-1 2,3 z m 4,-11 5,-6 5,5 -1,4 -3,1 2,2 h -5 z m -81,94 8,-2 14,-14 11,-6 6,-8 11,-5 2,-6 -2,-3 18,-5 6,-5 3,3 h 8 l -3,1 -3,1 6,8 -1,9 -8,2 2,4 -3,5 -13,-2 -7,9 -6,3 3,4 -8,2 -6,-2 -2,3 -8,-2 -6,5 2,2 -2,6 -5,5 1,2 -3,2 v 4 l -3,4 -2,-2 -5,2 -3,-4 2,-5 h -5 l -1,-4 3,-5 z" />
        <path
           id="okayama"
           
           d="m 338,681 v 5 l -8,9 2,7 -2,3 4,5 -1,3 -7,-1 3,2 -7,7 -9,-1 5,2 -2,4 -2,-1 -2,4 -5,-2 -2,3 -3,-6 v 4 l -3,-5 -4,4 -6,-3 2,4 -4,-2 -4,-16 2,-4 -4,-6 1,-7 -2,-3 1,-3 6,-1 v -4 l 6,1 -1,-3 3,-1 2,-6 8,2 4,4 10,-6 -1,3 7,2 1,7 z" />
        <path
           id="hiroshima"
           
           d="m 287,726 v 2 l -3,-2 3,3 h -2 l -2,4 -6,-2 v -3 l -9,2 -2,5 h -13 l -2,4 -6,3 -2,-2 -3,2 1,-3 -3,-6 1,-2 h -8 l -7,6 1,3 -6,-2 v -6 l -3,-2 v -7 l -1,-2 5,-5 2,-6 -2,-2 6,-5 8,2 2,-3 6,2 8,-2 -3,-4 6,-3 7,-9 13,2 7,2 2,3 -1,7 4,6 -2,4 z m -27,14 -3,2 -2,-2 5,-3 z m -24,0 -1,-4 3,1 -1,8 h -3 l 1,-3 -4,-5 z m -7,-6 1,2 -4,3 z m 20,10 -2,-2 h 4 z m -10,0 h 2 l -2,3 h 3 l -2,2 -5,-1 3,-6 h 2 z m 34,-9 1,3 -3,-3 z m -2,1 -4,3 1,-3 z m 4,-6 1,1 -3,2 z" />
        <path
           id="yamaguchi"
           
           d="m 198,709 1,6 -3,5 1,4 h 5 l -2,5 3,4 5,-2 2,2 3,-4 v -4 l 3,-2 v 7 l 3,2 v 6 l 6,2 -1,5 h -2 v 8 l -5,3 1,7 -4,-6 h -5 l -5,-6 -4,2 2,-3 -4,-3 -10,4 -4,-3 -2,3 v -2 l -2,2 v -4 l -2,5 -5,2 -2,-2 -2,2 -2,-5 -5,-4 -7,7 v -7 l -2,-4 4,-6 -3,-5 2,-4 h 7 l -5,-2 2,-3 8,2 1,3 h 8 l 6,-2 -1,-3 11,-11 3,1 z m 19,54 -5,2 2,-4 z m 11,-4 7,-2 -5,2 v 3 l -4,-3 -5,3 -1,-5 2,-2 z m -57,-35 -1,-2 5,1 z m 33,31 h -3 l 3,-3 z" />
      </g>
      <g
         id="SHIKOKU">
        <path
           id="tokushima"
           
           d="m 346,745 2,-1 -1,3 z m -8,0 7,-1 v 2 l 3,1 -4,9 7,7 -4,5 6,1 -19,11 -5,6 -5,-1 -3,-4 2,-3 -6,-1 -1,-9 -6,2 -13,-6 1,-8 10,-5 6,2 10,-6 12,2 z" />
        <path
           id="kagawa"
           
           d="m 298,756 -4,-2 3,-9 -5,-5 6,3 14,-10 7,3 4,-3 1,4 2,-2 3,2 v 3 l 9,5 -2,4 -12,-2 -10,6 -6,-2 z m 21,-28 -1,-1 h 3 z m 14,-5 h 2 l -2,8 -3,-1 1,-2 -4,4 1,-4 -4,-2 z" />
        <path
           id="ehime"
           
           d="m 243,757 -2,-1 4,-3 z m 21,-15 h -4 l 4,-6 3,3 z m 5,-1 2,1 -2,1 -3,-1 z m -2,5 -3,2 1,-5 4,1 z m -25,75 -8,-2 1,3 h -3 l 1,-5 4,1 -6,-5 2,-1 -2,-4 h 4 l -4,-1 2,-2 -3,-2 4,3 4,-4 -1,-3 h -3 l 2,-3 h -8 l 3,-2 -2,-2 2,-5 -6,-1 -8,6 -7,1 34,-20 7,-18 8,-4 -1,-4 2,-1 9,14 10,-4 10,2 5,-4 4,2 -1,8 -25,4 -6,9 -4,10 -11,1 5,9 -6,3 -5,8 -4,-3 3,13 z" />
        <path
           id="kochi"
           
           d="m 297,764 13,6 6,-2 1,9 6,1 -2,3 3,4 5,1 -7,19 -12,-16 -10,-3 -9,2 -1,-3 1,3 -12,4 h 6 l -6,1 -1,3 -2,-3 -3,5 1,4 -2,6 h -3 l -4,8 -5,1 v 8 l -3,3 3,7 -4,-5 -7,3 -5,-4 -4,2 2,-6 3,-1 v -3 h -3 l 2,-3 -3,-13 4,3 5,-8 6,-3 -5,-9 11,-1 4,-10 6,-9 z m -60,69 -2,2 v -4 z" />
      </g>
      <g
         id="KYUSHU">
        <path
           id="fukuoka"
           
           d="m 148,804 -8,-5 -2,4 -4,-1 -4,4 v 3 l -5,-1 v -5 l -2,-3 1,-7 9,-5 v -6 l -6,2 -7,-6 h -12 l 6,-4 -3,-3 6,-5 3,6 7,-1 2,-5 -4,2 -3,-3 5,1 4,-3 1,-8 10,-1 1,-3 6,1 -3,3 3,1 1,-3 4,2 7,-4 -4,8 2,2 -1,1 5,10 5,1 -1,7 -8,-1 -7,4 -4,6 2,5 -2,1 3,4 z" />
        <path
           id="saga"
           
           d="m 108,778 h 12 l 7,6 6,-2 v 6 l -9,5 -1,7 -6,-5 -5,5 2,10 -7,-2 -7,-7 1,-5 -6,-2 -3,-6 2,-3 4,4 -2,-4 3,-4 -5,-3 2,-2 2,2 v -6 l 1,2 h 5 v 4 z" />
        <path
           id="nagasaki"
           
           d="m 81,700 3,-2 2,3 -4,3 2,4 -6,6 -1,4 3,-2 -3,4 3,-1 -3,4 v -5 l -2,3 v -4 l -2,3 -3,-1 3,-1 v -4 l 2,-1 -2,-1 4,-3 -2,-3 2,-5 4,1 z m -6,27 -3,6 -6,1 3,-14 1,3 3,1 -1,-3 2,3 2,-1 z m 20,31 1,2 -4,2 -3,-5 2,1 -2,-3 3,-3 4,1 -2,3 3,1 z m -39,51 -3,5 2,-6 -4,-2 3,-1 v -4 h 2 l 2,-9 -2,11 5,1 -2,3 -2,-2 z m -4,1 h -3 v -2 l 2,1 -1,-3 z m -5,2 1,-3 v 5 l -4,-4 z m -12,5 3,-2 1,2 2,-3 3,10 -6,-1 v 4 l -9,-3 1,-2 1,3 1,-2 h -1 l 2,-2 -1,-7 z m 59,-39 -3,2 2,-4 z m 2,3 2,2 -3,1 z m -38,5 2,-2 1,2 z m 25,-11 h -3 l 3,-2 z m 11,10 -2,3 3,6 6,2 -1,5 7,7 7,2 -7,6 13,1 2,5 -2,6 -10,5 -1,-6 4,-4 -1,-3 h -5 l -7,1 -3,6 -9,5 4,-5 -1,-2 h 3 l 2,-3 -3,1 -2,-6 -4,-1 -3,-6 3,-11 4,4 -1,3 1,-2 3,3 -2,7 11,3 -3,-6 1,-5 -4,-4 -3,2 v -7 l -4,1 v -3 l -3,4 2,-2 -4,-2 1,-4 -1,2 -4,-2 4,-5 -3,-1 1,-4 5,-1 1,3 h 5 z m -16,1 -1,5 -6,1 4,-2 -1,-2 2,-6 5,1 1,-4 1,4 z m -35,28 1,-3 2,3 -3,2 z m 49,-15 v 4 l -2,-4 2,-2 z" />
        <path
           id="kumamoto"
           
           d="m 108,836 h 4 v 11 l -8,9 -4,1 v -6 l 4,-1 -5,-2 5,-9 -2,-3 z m 11,10 h -6 l -1,-4 6,-4 h 8 l -4,8 z m 4,-14 3,1 -1,4 -2,-1 z m 14,34 -5,-6 -9,4 -4,-4 12,-16 -2,-5 2,1 -1,-2 6,-6 -10,1 8,-6 1,-5 -9,-8 -1,-6 5,1 v -3 l 4,-4 4,1 2,-4 8,5 7,5 2,-4 -1,-6 6,1 7,13 v 6 l 3,3 -3,1 -9,14 -5,2 -1,7 5,7 -4,5 3,5 z" />
        <path
           id="oita"
           
           d="m 148,804 3,-5 -3,-4 2,-1 -2,-5 4,-6 7,-4 8,1 1,-7 12,4 5,-7 9,4 2,6 -2,8 -4,-1 1,3 -8,2 v 4 l 4,2 17,-1 -6,9 h 5 l -3,2 3,2 5,-2 1,3 h -5 l -2,4 10,4 h -6 l 2,2 -4,3 4,1 -7,1 v 4 h -2 l 1,-5 -5,-1 -3,4 h -8 l -4,-5 -6,1 -2,-2 -3,-3 v -6 l -7,-13 -6,-1 1,6 -2,4 z" />
        <path
           id="miiyazaki"
           
           d="m 172,822 2,2 6,-1 4,5 h 8 l 3,-4 5,1 -1,5 h 2 l -11,10 -1,4 3,1 -4,1 -1,2 2,1 -5,8 -6,17 -3,23 -5,5 -2,12 -5,-2 -5,-5 2,-3 v -7 l -7,-1 -3,-9 -5,-2 2,-5 -6,-5 -5,-7 1,-2 21,-3 -3,-5 4,-5 -5,-7 1,-7 5,-2 9,-14 z" />
        <path
           id="kagoshima"
           
           d="m 4,1148 -4,2 v -5 l 9,-1 z m 17,-22 v -8 l 4,-1 v 5 l 3,3 -1,3 -5,3 -2,-4 z m 61,-29 -2,2 -1,-3 6,-3 z m -18,-8 -13,9 3,2 -4,4 -3,-2 1,4 -5,-5 1,-2 -8,-3 h 7 l 2,-1 -5,-2 14,-5 2,2 3,-5 h 4 l -2,3 2,-2 2,2 2,-6 1,6 z m -21,18 -1,-2 -3,2 -1,-7 5,2 -2,3 6,1 -2,3 v -2 z m 60,-142 3,2 h -3 z m 10,11 -1,-6 7,-4 9,6 -1,5 -6,4 -6,-1 z m 31,-7 v 5 l -6,1 v -8 l 3,-3 2,-9 7,-10 1,9 z m -25,-109 4,4 9,-4 5,6 -1,2 5,7 6,5 -2,5 5,2 3,9 7,1 v 7 l -2,3 -3,-1 -5,6 5,3 -2,3 h 3 l -6,3 -4,5 -16,8 v -5 l 5,-3 4,-13 -5,-8 v -6 l -6,-2 5,-2 1,4 h 3 l 4,-6 -7,-5 -4,2 -6,13 2,11 5,3 -2,5 -6,1 -3,-6 -13,-1 1,-3 -3,-2 2,-1 -5,-5 9,1 4,-11 -3,-8 -5,-5 3,-7 -2,-11 4,-2 3,2 z m -7,-7 2,-1 -1,2 z m -5,10 -2,-5 4,-3 2,5 z m -22,21 2,-3 1,2 -6,8 -2,-1 z m 8,-4 -4,-3 h 6 z m -18,132 -3,4 v -3 z m 6,-11 2,-2 2,4 z" />
        <path
           id="okinawa"
           
           d="m -54.531598,189.21066 3,1 -2,1 -5,-1 z m 45.0000003,12 5.9999998,3 -3.9999998,6 -11.0000003,-5 2,-2 3,2 1,-7 z m 77.9999987,-14 -1,-4 3,2 z m 6,6 -3,-2 h 2 l -1,-3 2,-2 -1,-5 3,8 7,6 z m 91.999999,-89 v 5 l -5,-5 3,-2 z m 243,57 -1,-3 h 2 z m -188,-72.000003 v -2 l 3,2 z m 14,4 v 2 l -2,-2 z M 14.468402,198.21066 l 5,-6 1,2 -6,6 v 7 H 8.4684021 l -2,-2 2,-2 -3,-3 7.9999999,1 z m 214.999998,-97 3,-3.000003 -5,-2 v -6 l 6,1 1,4 6,-1 -1,-2 10,-10 3,4 -1,5 -5,6 -5,-1 -1,5.000003 -5,-1 1,2 -7,5 -6,-1 4,9 -4,-2 -5,7 4,3 -10,4 -1,-8 7,-6 -2,-8 5,1 z"
           style="display:inline" />
      </g>
    </g>
  </g>
  <g
     id="line"
     transform="translate(-83.747212,50.755886)">
    <path
       style="fill:#000000;fill-opacity:1;stroke:#000000;stroke-width:2.4;stroke-dasharray:none;stroke-opacity:1;paint-order:markers fill stroke"
       d="m 672.51549,32.991326 c 0,12.688972 0,261.392814 0,261.392814"
       id="y" />
    <path
       style="fill:#000000;fill-opacity:1;stroke:#000000;stroke-width:2.4;stroke-dasharray:none;stroke-opacity:1;paint-order:markers fill stroke"
       d="M 672.51549,291.84634 H 225.86369"
       id="x" />
  </g>
</svg>
